<svg width="512" height="512" viewBox="0 0 512 512" xmlns="http://www.w3.org/2000/svg"><path d="M256 162.91c-51.432 0-93.09 41.658-93.09 93.09s41.658 93.09 93.09 93.09 93.09-41.658 93.09-93.09-41.658-93.09-93.09-93.09zm208.057 69.818c-10.704-97.046-87.738-174.08-184.784-184.784V0h-46.545v47.943C135.682 58.647 58.648 135.68 47.944 232.727H0v46.545h47.943c10.704 97.046 87.738 174.08 184.784 184.784V512h46.545v-47.943c97.046-10.704 174.08-87.738 184.784-184.784H512v-46.545h-47.943zM256 418.908c-89.95 0-162.91-72.954-162.91-162.908 0-89.95 72.96-162.91 162.91-162.91 89.954 0 162.91 72.96 162.91 162.91 0 89.954-72.956 162.91-162.91 162.91v-.002z" fill="#FFF" fill-rule="evenodd"/></svg>