<svg width="16" height="16" viewBox="0 0 16 16" xmlns="http://www.w3.org/2000/svg"><path d="M15.633 12.88c-2.576-.992-5.435-.94-5.675-1.707V10.02c2.572-.007 3.592-.835 3.592-.835-1.073-.608-1.413-4.85-1.413-4.85 0-1.3-.548-2.46-1.41-3.255C10.4.704 9.952.42 9.376.25 8.944.093 8.48 0 7.998 0c-.515 0-1.005.103-1.46.282-.465.153-.846.385-1.144.685C4.46 1.76 3.86 2.974 3.86 4.335c0 0-.34 4.242-1.413 4.85 0 0 1.02.828 3.592.835v1.153c-.24.766-3.1.715-5.675 1.707-.22.085-.365.297-.365.535v2.012c0 .316.254.573.567.573H15.43c.314 0 .567-.257.567-.573v-2.012c0-.238-.145-.45-.364-.535z" fill="#FFF" fill-rule="evenodd"/></svg>